# xmcd CD database file
#
# Track frame offsets:
#	150
#	11184
#	25394
#	40223
#	56460
#	67972
#	79623
#	91584
#	105684
#	117691
#	129734
#	143278
#	159724
#	170584
#	184592
#	192494
#	204640
#
# Disc length: 2858 seconds
#
# Revision: 0
# Processed by: cddbd v1.5.1PL0 Copyright (c) Steve Scherf et al.
# Submitted via: CDex 1.51
#
DISCID=e80b2811
DTITLE=Anita O'Day - Complete 1952 Veerve Sessions
DYEAR=1952
DGENRE=Jazz
TTITLE0=Lover Come Back To Me
TTITLE1=Lullaby Of The Leaves 
TTITLE2=Rock And Roll Blues
TTITLE3=Love For Sale
TTITLE4=No Soap, No Hope Blues
TTITLE5=Speak Now
TTITLE6=The Lady Is  A Tramp
TTITLE7=Strawberry Moon
TTITLE8=Pagan Love Song
TTITLE9=Ain't This A Wonderful Day
TTITLE10=Somebodyy's Cryin'
TTITLE11=Vaya Con Dios
TTITLE12=Ain't Misbehavin'
TTITLE13=Penthouse Serenade
TTITLE14=Loneasome Road
TTITLE15=I Can't Give You Anithing But Love
TTITLE16=Rosetta
EXTD=YEAR: 1952
EXTT0=
EXTT1=
EXTT2=
EXTT3=
EXTT4=
EXTT5=
EXTT6=
EXTT7=
EXTT8=
EXTT9=
EXTT10=
EXTT11=
EXTT12=
EXTT13=
EXTT14=
EXTT15=
EXTT16=
PLAYORDER=
